<svg width="22" height="34" viewBox="0 0 22 34" fill="none" xmlns="http://www.w3.org/2000/svg">
<path d="M6.60618 30.8923C11.2216 30.9462 16.0505 30.8115 20.3191 30.8385C20.986 30.8385 21.3062 31.2692 21.3329 31.8885C21.3862 32.8577 20.826 33.1269 19.9456 33.1269C13.8895 33.2077 7.80672 33.2077 1.75064 33.2615C1.00363 33.2615 0.22995 33.1269 0.22995 32.2115C0.22995 22.2231 0.22995 12.2615 0.22995 2.27308C0.22995 1.76154 0.390022 1.38461 0.710168 1.14231C1.32378 0.657691 2.20418 0.926922 2.47097 1.68077C2.52432 1.86923 2.57768 2.19231 2.57768 2.62308C2.57768 12.0192 2.57768 21.4154 2.57768 30.8385C2.57768 30.8923 2.60436 30.9192 2.65772 30.9192H3.99166C4.04501 30.9192 4.07169 30.8923 4.07169 30.8385C4.07169 21.4961 4.07169 12.1808 4.07169 2.83846C4.07169 1.95 3.99166 1.27692 4.79202 0.873076C5.75245 0.388461 6.52614 1.03461 6.52614 2.05769C6.49946 11.6423 6.49946 21.2269 6.55282 30.8115C6.52614 30.8654 6.55282 30.8923 6.60618 30.8923Z" fill="#F2886C"/>
</svg>
