<svg width="147" height="42" viewBox="0 0 147 42" fill="none" xmlns="http://www.w3.org/2000/svg">
<path d="M13.6062 34.8923C18.2216 34.9462 23.0505 34.8115 27.3191 34.8385C27.9861 34.8385 28.3062 35.2692 28.3329 35.8885C28.3862 36.8577 27.826 37.1269 26.9456 37.1269C20.8895 37.2077 14.8068 37.2077 8.75067 37.2615C8.00366 37.2615 7.22998 37.1269 7.22998 36.2115C7.22998 26.2231 7.22998 16.2615 7.22998 6.27308C7.22998 5.76154 7.39005 5.38461 7.7102 5.14231C8.32381 4.65769 9.20421 4.92692 9.471 5.68077C9.52435 5.86923 9.57771 6.19231 9.57771 6.62308C9.57771 16.0192 9.57771 25.4154 9.57771 34.8385C9.57771 34.8923 9.60439 34.9192 9.65775 34.9192H10.9917C11.045 34.9192 11.0717 34.8923 11.0717 34.8385C11.0717 25.4961 11.0717 16.1808 11.0717 6.83846C11.0717 5.95 10.9917 5.27692 11.792 4.87308C12.7525 4.38846 13.5262 5.03461 13.5262 6.05769C13.4995 15.6423 13.4995 25.2269 13.5528 34.8115C13.5262 34.8654 13.5528 34.8923 13.6062 34.8923Z" fill="#F2886C"/>
<path d="M56.0521 20.5154C56.2922 29.4 49.2757 36.8038 40.3917 37.0462C31.5076 37.2885 24.0909 30.2885 23.8508 21.4308C23.6107 12.5462 30.6272 5.14231 39.5113 4.9C48.3953 4.63077 55.812 11.6308 56.0521 20.5154ZM53.731 20.5154C53.4643 12.9231 47.1147 7 39.5379 7.24231C31.9612 7.48462 26.0118 13.8385 26.2519 21.4308C26.492 28.9962 32.8416 34.9462 40.445 34.6769C48.0218 34.4346 53.9712 28.0808 53.731 20.5154Z" fill="#F2886C"/>
<path d="M92.7355 20.9462C92.7355 29.6962 85.6923 36.8038 77.0217 36.8038C68.3511 36.8038 61.3079 29.6962 61.3079 20.9462C61.3079 12.1962 68.3511 5.08846 77.0217 5.08846C85.7189 5.08846 92.7355 12.1962 92.7355 20.9462ZM90.4678 20.9462C90.4678 13.4615 84.465 7.40385 77.0483 7.40385C69.6316 7.40385 63.6289 13.4615 63.6289 20.9462C63.6289 28.4308 69.6316 34.4885 77.0483 34.4885C84.465 34.4885 90.4678 28.4308 90.4678 20.9462Z" fill="#F2886C"/>
<path d="M111.997 23.3962C109.49 22.2385 106.582 21.7 103.834 21.1077C100.472 20.4077 97.2708 18.5769 96.4171 14.9692C96.0436 13.4885 96.1503 12.0346 96.7105 10.6346C98.1245 7.10769 102.18 5.41154 105.675 5.22308C108.769 5.06154 112.104 6.11154 114.772 7.67308C115.172 7.88846 116.213 8.66923 116.399 9.20769C116.72 10.1231 115.732 10.9846 114.879 10.5808C114.719 10.5 114.452 10.3385 114.105 10.0962C110.957 7.94231 107.275 7 103.514 7.91539C100.552 8.66923 98.0445 10.7423 98.5247 14.1346C98.9515 17.0962 102.1 18.2808 104.581 18.9269C106.928 19.5192 109.303 20.0308 111.597 20.7577C114.665 21.7269 117.12 23.7192 117.44 27.1654C117.84 31.6077 114.932 34.8654 110.877 36.0769C105.541 37.6654 99.912 35.9154 95.9102 32.1462C95.59 31.85 95.4033 31.6077 95.3232 31.4192C95.0298 30.6385 95.8301 29.75 96.6305 29.9115C96.8172 29.9654 97.0573 30.1 97.3241 30.3154C98.9782 31.7423 100.712 32.8192 102.5 33.5731C106.742 35.35 114.692 34.4077 115.252 28.2962C115.466 26.0077 113.918 24.2577 111.997 23.3962Z" fill="#F2886C"/>
<path d="M124.697 18.1192C128.378 18.1192 132.06 18.1192 135.768 18.1192C136.515 18.1192 137.689 17.9846 138.169 18.3346C139.237 19.0346 138.543 20.4077 137.342 20.4077C133.154 20.4077 128.939 20.4077 124.75 20.4077C124.697 20.4077 124.67 20.4346 124.67 20.4885L124.643 21.7808C124.643 21.8346 124.67 21.8615 124.723 21.8615C129.099 21.8615 133.474 21.8615 137.849 21.8615C139.263 21.8615 139.157 24.0962 137.663 24.0962C133.341 24.0962 129.019 24.1231 124.697 24.15C124.643 24.15 124.643 24.1769 124.643 24.2038V34.0577C124.643 34.0846 124.67 34.1385 124.723 34.1385C130.032 34.1115 135.368 34.1115 140.704 34.0846C141.077 34.0846 141.638 34.0039 141.958 34.2462C142.812 34.8923 142.598 36.4539 141.398 36.4269C138.863 36.4269 136.302 36.4808 133.767 36.4808C130.566 36.4808 127.365 36.5077 124.19 36.5346C123.043 36.5615 122.482 36.2654 122.482 35.0539C122.482 25.6308 122.482 16.2077 122.482 6.78462C122.482 5.76154 122.829 5.30385 123.843 5.30385C129.579 5.33077 135.341 5.30385 141.077 5.38462C141.478 5.38462 141.771 5.43846 141.931 5.54616C142.705 5.97693 142.651 7.13462 141.878 7.48462C141.691 7.56539 141.371 7.61923 140.944 7.61923C135.635 7.59231 130.246 7.56539 124.777 7.53846C124.697 7.53846 124.643 7.59231 124.643 7.67308V18.0654C124.617 18.0923 124.643 18.1192 124.697 18.1192Z" fill="#F2886C"/>
<path d="M0.0533447 8.05C0.0533447 7.96923 0.0800235 7.91539 0.133381 7.86154C0.186739 7.80769 0.266775 7.78077 0.320132 7.78077H4.26859C4.34863 7.78077 4.40198 7.80769 4.45534 7.86154C4.5087 7.91539 4.53538 7.96923 4.53538 8.05V10.3115C4.53538 10.3923 4.5087 10.4462 4.45534 10.5C4.40198 10.5538 4.34863 10.5808 4.26859 10.5808C4.21523 10.5808 4.1352 10.5538 4.10852 10.5C4.08184 10.4462 4.02848 10.3923 4.02848 10.3115V8.26539L4.08184 8.29231H2.53447L2.61451 8.26539V10.0154C2.61451 10.0962 2.58783 10.15 2.53447 10.2038C2.48111 10.2577 2.42775 10.2846 2.34772 10.2846C2.26768 10.2846 2.21432 10.2577 2.18765 10.2038C2.13429 10.15 2.10761 10.0962 2.10761 10.0154V8.26539L2.16097 8.31923H0.320132C0.240096 8.31923 0.186739 8.29231 0.133381 8.23846C0.0800235 8.18462 0.0533447 8.13077 0.0533447 8.05Z" fill="#F2886C"/>
<path d="M3.41488 14.6192C3.41488 14.7 3.3882 14.7538 3.33485 14.8077C3.28149 14.8615 3.22813 14.8885 3.14809 14.8885H0.320145C0.240109 14.8885 0.186751 14.8615 0.133394 14.8077C0.0800363 14.7538 0.0533575 14.7 0.0533575 14.6192C0.0533575 14.5385 0.0800363 14.4846 0.133394 14.4308C0.186751 14.3769 0.240109 14.35 0.320145 14.35H0.933757V14.4846C0.827042 14.4846 0.720327 14.4577 0.613612 14.3769C0.506897 14.3231 0.400182 14.2154 0.293466 14.1077C0.240109 14 0.160073 13.8654 0.0800363 13.7308C0.0266788 13.5692 0 13.4077 0 13.2192C0 12.9231 0.0800363 12.6538 0.240109 12.4385C0.400182 12.1962 0.586933 12.0077 0.853721 11.8731C1.12051 11.7385 1.41397 11.6846 1.73412 11.6846C2.08094 11.6846 2.37441 11.7654 2.61452 11.9C2.88131 12.0346 3.06806 12.2231 3.22813 12.4385C3.3882 12.6538 3.46824 12.9231 3.46824 13.2192C3.46824 13.4077 3.44156 13.5692 3.3882 13.7308C3.33485 13.8923 3.25481 14.0269 3.14809 14.1346C3.04138 14.2423 2.93466 14.35 2.80127 14.4038C2.66788 14.4846 2.53448 14.5115 2.40109 14.5115L2.42777 14.35H3.12142C3.20145 14.35 3.25481 14.3769 3.30817 14.4308C3.3882 14.4846 3.41488 14.5385 3.41488 14.6192ZM0.480218 13.2731C0.480218 13.4885 0.533575 13.6769 0.64029 13.8385C0.747006 14 0.907078 14.1346 1.09383 14.2154C1.28058 14.3231 1.49401 14.35 1.73412 14.35C1.97423 14.35 2.18766 14.2962 2.37441 14.2154C2.56116 14.1077 2.72123 14 2.82795 13.8385C2.93466 13.6769 2.98802 13.4885 2.98802 13.2731C2.98802 13.0577 2.93466 12.8692 2.82795 12.7077C2.72123 12.5462 2.56116 12.4115 2.37441 12.3038C2.18766 12.1962 1.97423 12.1692 1.73412 12.1692C1.49401 12.1692 1.28058 12.2231 1.09383 12.3038C0.907078 12.3846 0.747006 12.5192 0.64029 12.6808C0.533575 12.8692 0.480218 13.0577 0.480218 13.2731Z" fill="#F2886C"/>
<path d="M0.586933 16.2885C0.64029 16.2615 0.693648 16.2346 0.773684 16.2346C0.827042 16.2346 0.880399 16.2615 0.933757 16.3423C0.960436 16.3962 0.987114 16.45 0.960436 16.5038C0.960436 16.5577 0.933757 16.6115 0.880399 16.6654C0.747005 16.7731 0.64029 16.9346 0.533575 17.0692C0.453539 17.2308 0.400182 17.4192 0.400182 17.6346C0.400182 17.7423 0.42686 17.8231 0.453539 17.9308C0.480218 18.0385 0.533575 18.1192 0.613612 18.2C0.693648 18.2808 0.800363 18.3077 0.933757 18.3077C1.04047 18.3077 1.14719 18.2808 1.22722 18.2C1.28058 18.1462 1.33394 18.0385 1.3873 17.9308C1.44065 17.8231 1.46733 17.6885 1.49401 17.5538C1.52069 17.4192 1.57405 17.2846 1.6274 17.1231C1.68076 16.9885 1.73412 16.8539 1.81416 16.7462C1.89419 16.6385 1.97423 16.5577 2.10762 16.4769C2.24102 16.3962 2.34773 16.3692 2.53448 16.3692C2.72123 16.3692 2.88131 16.4231 3.04138 16.5308C3.17477 16.6385 3.28149 16.7731 3.36152 16.9615C3.44156 17.15 3.46824 17.3385 3.46824 17.5538C3.46824 17.6615 3.44156 17.7962 3.41488 17.9308C3.3882 18.0654 3.33485 18.2 3.28149 18.3077C3.22813 18.4423 3.12142 18.55 3.0147 18.6308C2.96134 18.6577 2.90799 18.6846 2.85463 18.6846C2.80127 18.6846 2.72123 18.6577 2.69456 18.6038C2.66788 18.55 2.6412 18.4962 2.6412 18.4423C2.6412 18.3885 2.66788 18.3346 2.69456 18.3077C2.80127 18.2 2.88131 18.0923 2.93466 17.9577C2.98802 17.8231 3.0147 17.6615 3.0147 17.5C3.0147 17.3923 2.98802 17.3115 2.96134 17.2039C2.93466 17.0962 2.88131 17.0154 2.80127 16.9615C2.72123 16.9077 2.6412 16.8538 2.5078 16.8538C2.40109 16.8538 2.29437 16.9077 2.21434 16.9615C2.1343 17.0423 2.08094 17.1231 2.02759 17.2577C1.97423 17.3923 1.94755 17.5269 1.89419 17.6615C1.86751 17.7962 1.81416 17.9308 1.78748 18.0654C1.73412 18.2 1.68076 18.3077 1.60073 18.4154C1.52069 18.5231 1.44065 18.6039 1.33394 18.6577C1.22722 18.7115 1.06715 18.7385 0.907078 18.7385C0.720327 18.7385 0.533575 18.6846 0.400182 18.5769C0.266788 18.4692 0.160073 18.3077 0.0800363 18.1462C0.0266788 17.9846 0 17.7962 0 17.5808C0 17.3385 0.0533575 17.0962 0.133394 16.8808C0.21343 16.6654 0.373503 16.45 0.586933 16.2885Z" fill="#F2886C"/>
<path d="M3.41487 21.8077C3.41487 22.1038 3.36151 22.3192 3.22812 22.4808C3.09472 22.6423 2.93465 22.7769 2.7479 22.8308C2.56115 22.8846 2.32104 22.9385 2.08093 22.9385H0.320132C0.240096 22.9385 0.186739 22.9115 0.133381 22.8577C0.0800235 22.8038 0.0533447 22.75 0.0533447 22.6692C0.0533447 22.5885 0.0800235 22.5346 0.133381 22.4808C0.186739 22.4269 0.240096 22.4 0.320132 22.4H2.08093C2.241 22.4 2.3744 22.3731 2.50779 22.3192C2.64119 22.2654 2.7479 22.1846 2.82794 22.0769C2.90797 21.9692 2.93465 21.8077 2.93465 21.6192C2.93465 21.4308 2.90797 21.2692 2.82794 21.1346C2.7479 21 2.64119 20.8654 2.50779 20.7846C2.3744 20.7038 2.241 20.65 2.08093 20.65H0.320132C0.240096 20.65 0.186739 20.6231 0.133381 20.5692C0.0800235 20.5154 0.0533447 20.4615 0.0533447 20.3808C0.0533447 20.3 0.0800235 20.2462 0.133381 20.1923C0.186739 20.2192 0.266775 20.1923 0.320132 20.1923H4.53538C4.61541 20.1923 4.66877 20.2192 4.72213 20.2731C4.77549 20.3269 4.80217 20.3808 4.80217 20.4615C4.80217 20.5423 4.77549 20.5962 4.72213 20.65C4.66877 20.7038 4.61541 20.7308 4.53538 20.7308H2.64119L2.50779 20.5962C2.61451 20.6231 2.72122 20.6769 2.85462 20.7308C2.96133 20.8115 3.06805 20.8923 3.14808 21C3.22812 21.1077 3.30815 21.2423 3.36151 21.3769C3.38819 21.5115 3.41487 21.6462 3.41487 21.8077Z" fill="#F2886C"/>
<path d="M3.84173 24.7692C3.84173 24.6615 3.86841 24.5808 3.89509 24.5269C3.92177 24.4731 4.0018 24.4462 4.08184 24.4462H4.16187C4.24191 24.4462 4.32195 24.4731 4.34863 24.5269C4.40198 24.5808 4.40198 24.6615 4.40198 24.7692C4.40198 24.8769 4.3753 24.9577 4.34863 25.0115C4.29527 25.0654 4.24191 25.0923 4.16187 25.0923H4.08184C4.0018 25.0923 3.92177 25.0654 3.89509 25.0115C3.86841 24.9577 3.84173 24.8769 3.84173 24.7692ZM0.320132 25.0385C0.240096 25.0385 0.186739 25.0115 0.133381 24.9577C0.0800235 24.9038 0.0533447 24.85 0.0533447 24.7692C0.0533447 24.6885 0.0800235 24.6346 0.133381 24.5808C0.186739 24.5269 0.240096 24.5 0.320132 24.5H3.14808C3.22812 24.5 3.28148 24.5269 3.33483 24.5808C3.38819 24.6346 3.41487 24.6885 3.41487 24.7692C3.41487 24.85 3.38819 24.9038 3.33483 24.9577C3.28148 25.0115 3.22812 25.0385 3.14808 25.0385H0.320132Z" fill="#F2886C"/>
<path d="M1.73417 29.7769C1.41403 29.7769 1.09388 29.6962 0.853775 29.5615C0.586987 29.4 0.400236 29.2115 0.240163 28.9692C0.0800909 28.7269 0.0267334 28.4308 0.0267334 28.1077C0.0267334 27.7846 0.10677 27.5154 0.240163 27.2462C0.400236 27.0038 0.586987 26.7885 0.853775 26.6538C1.12056 26.4923 1.41403 26.4385 1.73417 26.4385C2.05432 26.4385 2.37446 26.5192 2.61457 26.6538C2.88136 26.8154 3.06811 27.0038 3.22818 27.2462C3.38826 27.4885 3.44161 27.7846 3.44161 28.1077C3.44161 28.4308 3.36158 28.7 3.22818 28.9692C3.06811 29.2115 2.88136 29.4269 2.61457 29.5615C2.34779 29.7231 2.05432 29.7769 1.73417 29.7769ZM1.73417 29.2654C1.97428 29.2654 2.18771 29.2115 2.37446 29.1038C2.56122 28.9962 2.69461 28.8615 2.828 28.7C2.9614 28.5385 2.98808 28.3231 2.98808 28.1077C2.98808 27.8923 2.93472 27.7038 2.828 27.5154C2.72129 27.3269 2.56122 27.1923 2.37446 27.1115C2.18771 27.0038 1.97428 26.95 1.73417 26.95C1.49407 26.95 1.28064 27.0038 1.09388 27.1115C0.907133 27.2192 0.74706 27.3538 0.640345 27.5154C0.53363 27.6769 0.480272 27.8923 0.480272 28.1077C0.480272 28.3231 0.53363 28.5115 0.640345 28.7C0.74706 28.8885 0.907133 29.0231 1.09388 29.1038C1.28064 29.1846 1.49407 29.2654 1.73417 29.2654Z" fill="#F2886C"/>
<path d="M3.46823 32.8731C3.46823 33.1692 3.41487 33.3846 3.28148 33.5731C3.17476 33.7346 3.01469 33.8692 2.80126 33.9231C2.58783 34.0038 2.3744 34.0308 2.13429 34.0308H0.320132C0.240096 34.0308 0.186739 34.0038 0.133381 33.95C0.0800235 33.8961 0.0533447 33.8423 0.0533447 33.7615C0.0533447 33.6808 0.0800235 33.6269 0.133381 33.5731C0.186739 33.5192 0.240096 33.4923 0.320132 33.4923H2.10761C2.26768 33.4923 2.42776 33.4654 2.56115 33.4115C2.69454 33.3577 2.80126 33.2769 2.88129 33.1692C2.96133 33.0615 2.98801 32.9 2.98801 32.7115C2.98801 32.5231 2.96133 32.3615 2.88129 32.2269C2.80126 32.0923 2.69454 31.9577 2.56115 31.8769C2.42776 31.7961 2.29436 31.7423 2.10761 31.7423H0.320132C0.240096 31.7423 0.186739 31.7154 0.133381 31.6615C0.0800235 31.6077 0.0533447 31.5538 0.0533447 31.4731C0.0533447 31.3923 0.0800235 31.3385 0.133381 31.2846C0.186739 31.2308 0.240096 31.2038 0.320132 31.2038H3.09472C3.17476 31.2038 3.22812 31.2308 3.28148 31.2846C3.33483 31.3385 3.36151 31.3923 3.36151 31.4731C3.36151 31.5538 3.33483 31.6077 3.28148 31.6615C3.22812 31.7154 3.17476 31.7423 3.09472 31.7423H2.66786L2.53447 31.6077C2.64119 31.6346 2.7479 31.6885 2.88129 31.7692C2.98801 31.85 3.09472 31.9308 3.17476 32.0654C3.2548 32.1731 3.33483 32.3077 3.38819 32.4423C3.44155 32.5769 3.46823 32.7115 3.46823 32.8731Z" fill="#F2886C"/>
</svg>
